<svg width="20" height="24" viewBox="0 0 20 24" fill="none" xmlns="http://www.w3.org/2000/svg">
<path d="M17.5625 7.55L5.29376 20.9375H0.79376C0.48126 20.9375 0.23126 20.625 0.29376 20.3125L3.29376 1.3125C3.35626 0.875 3.73126 0.5625 4.16876 0.5625H11.7938C17.0438 0.75 18.4813 3.4375 17.5438 7.5625L17.5625 7.55Z" fill="#002C8A"/>
<path d="M17.7625 6.3125C19.6375 7.3125 20.075 9.1875 19.45 11.6875C18.6375 15.375 16.2 16.9375 12.6375 17L11.6375 17.0625C11.2625 17.0625 11.0125 17.3125 10.95 17.6875L10.1375 22.625C10.075 23.0625 9.70001 23.375 9.26251 23.375H5.51251C5.20001 23.375 4.95001 23.0625 5.01251 22.75L6.38751 13.8125C6.45001 13.5 17.7625 6.3125 17.7625 6.3125Z" fill="#009BE1"/>
<path d="M6.3125 14.25L7.5625 6.3125C7.6035 6.12452 7.70532 5.95529 7.8522 5.83101C7.99908 5.70673 8.18282 5.63432 8.375 5.625H14.375C15.8125 5.625 16.875 5.875 17.75 6.3125C17.4375 9.0625 16.125 13.5 9.75 13.625H7C6.6875 13.625 6.375 13.875 6.3125 14.25Z" fill="#001F6B"/>
</svg>
