<svg width="40" height="40" viewBox="0 0 40 40" fill="none" xmlns="http://www.w3.org/2000/svg">
<path d="M13.125 29.9375C12.7934 29.9375 12.4755 29.8058 12.2411 29.5714C12.0067 29.337 11.875 29.019 11.875 28.6875V7.5625C11.875 7.23098 12.0067 6.91304 12.2411 6.67862C12.4755 6.4442 12.7934 6.3125 13.125 6.3125C13.4565 6.3125 13.7744 6.4442 14.0089 6.67862C14.2433 6.91304 14.375 7.23098 14.375 7.5625V28.6875C14.375 29.019 14.2433 29.337 14.0089 29.5714C13.7744 29.8058 13.4565 29.9375 13.125 29.9375ZM7.55497 14.3831C7.30778 14.3831 7.06616 14.3097 6.86065 14.1724C6.65514 14.035 6.49496 13.8398 6.40037 13.6114C6.30579 13.3831 6.28103 13.1318 6.32924 12.8893C6.37745 12.6469 6.49646 12.4242 6.67122 12.2494L8.96935 9.95062C9.2051 9.72293 9.52085 9.59693 9.8486 9.59978C10.1763 9.60263 10.4899 9.73409 10.7216 9.96585C10.9534 10.1976 11.0848 10.5111 11.0877 10.8389C11.0905 11.1666 10.9645 11.4824 10.7368 11.7181L8.43872 14.0169C8.3228 14.1331 8.18505 14.2253 8.03339 14.2882C7.88173 14.351 7.71914 14.3833 7.55497 14.3831Z" fill="#232323"/>
<path d="M18.695 14.3831C18.5308 14.3833 18.3682 14.351 18.2166 14.2882C18.0649 14.2253 17.9272 14.1331 17.8112 14.0169L12.2412 8.44623C12.1218 8.33092 12.0266 8.19299 11.9611 8.04048C11.8956 7.88798 11.8611 7.72395 11.8597 7.55798C11.8582 7.39201 11.8899 7.22741 11.9527 7.07379C12.0156 6.92017 12.1084 6.7806 12.2257 6.66324C12.3431 6.54587 12.4827 6.45305 12.6363 6.3902C12.7899 6.32735 12.9545 6.29572 13.1205 6.29717C13.2865 6.29861 13.4505 6.33309 13.603 6.3986C13.7555 6.46411 13.8934 6.55934 14.0087 6.67873L19.5787 12.2494C19.7535 12.4242 19.8725 12.6469 19.9207 12.8893C19.9689 13.1318 19.9442 13.383 19.8496 13.6114C19.755 13.8398 19.5948 14.035 19.3893 14.1724C19.1838 14.3097 18.9422 14.3831 18.695 14.3831Z" fill="#232323"/>
<path d="M26.875 33.6875C26.5435 33.6875 26.2255 33.5558 25.9911 33.3214C25.7567 33.087 25.625 32.769 25.625 32.4375V11.3125C25.625 10.981 25.7567 10.663 25.9911 10.4286C26.2255 10.1942 26.5435 10.0625 26.875 10.0625C27.2065 10.0625 27.5245 10.1942 27.7589 10.4286C27.9933 10.663 28.125 10.981 28.125 11.3125V32.4375C28.125 32.769 27.9933 33.087 27.7589 33.3214C27.5245 33.5558 27.2065 33.6875 26.875 33.6875ZM30.1469 30.4156C29.8997 30.4156 29.6581 30.3422 29.4526 30.2049C29.247 30.0675 29.0869 29.8723 28.9923 29.6439C28.8977 29.4156 28.8729 29.1643 28.9211 28.9218C28.9694 28.6794 29.0884 28.4567 29.2631 28.2819L31.5613 25.9831C31.797 25.7554 32.1128 25.6294 32.4405 25.6323C32.7682 25.6351 33.0818 25.7666 33.3135 25.9984C33.5453 26.2301 33.6767 26.5436 33.6796 26.8714C33.6824 27.1991 33.5564 27.5149 33.3288 27.7506L31.0313 30.05C30.9153 30.1663 30.7776 30.2585 30.6259 30.3213C30.4743 30.3842 30.3117 30.4165 30.1475 30.4163L30.1469 30.4156Z" fill="#939393"/>
<path d="M26.875 33.6876C26.7108 33.6878 26.5483 33.6555 26.3966 33.5926C26.2449 33.5298 26.1072 33.4376 25.9913 33.3213L20.4213 27.7507C20.1936 27.515 20.0676 27.1992 20.0704 26.8715C20.0733 26.5437 20.2047 26.2302 20.4365 25.9984C20.6683 25.7667 20.9818 25.6352 21.3095 25.6324C21.6373 25.6295 21.953 25.7555 22.1888 25.9832L27.7588 31.5538C27.9335 31.7287 28.0525 31.9514 28.1007 32.1938C28.149 32.4362 28.1242 32.6875 28.0296 32.9159C27.935 33.1443 27.7748 33.3395 27.5693 33.4768C27.3638 33.6142 27.1222 33.6875 26.875 33.6876Z" fill="#939393"/>
</svg>
